<svg version="1.1" viewBox="0.0 0.0 960.0 720.0" fill="none" stroke="none" stroke-linecap="square" stroke-miterlimit="10" xmlns:xlink="http://www.w3.org/1999/xlink" xmlns="http://www.w3.org/2000/svg"><clipPath id="p.0"><path d="m0 0l960.0 0l0 720.0l-960.0 0l0 -720.0z" clip-rule="nonzero"/></clipPath><g clip-path="url(#p.0)"><path fill="#000000" fill-opacity="0.0" d="m0 0l960.0 0l0 720.0l-960.0 0z" fill-rule="evenodd"/><path stroke="#9e9e9e" stroke-width="1.0" stroke-linecap="butt" d="m308.96326 159.50131l0 83.39108" fill-rule="nonzero"/><path stroke="#9e9e9e" stroke-width="1.0" stroke-linecap="butt" d="m569.65356 159.50131l0 83.39108" fill-rule="nonzero"/><path stroke="#9e9e9e" stroke-width="1.0" stroke-linecap="butt" d="m308.46457 160.0l261.68765 0" fill-rule="nonzero"/><path stroke="#9e9e9e" stroke-width="1.0" stroke-linecap="butt" d="m308.46457 201.19685l261.68765 0" fill-rule="nonzero"/><path stroke="#9e9e9e" stroke-width="1.0" stroke-linecap="butt" d="m308.46457 242.3937l261.68765 0" fill-rule="nonzero"/><path fill="#000000" d="m433.76575 186.92l-1.640625 0l0 -10.453125q-0.59375 0.5625 -1.5625 1.140625q-0.953125 0.5625 -1.71875 0.84375l0 -1.59375q1.375 -0.640625 2.40625 -1.5625q1.03125 -0.921875 1.453125 -1.78125l1.0625 0l0 13.40625z" fill-rule="nonzero"/><path fill="#000000" d="m368.39844 225.55435q0 2.65625 -2.03125 2.65625q-0.640625 0 -1.078125 -0.359375q-0.4375 -0.375 -0.6875 -0.859375q-0.25 -0.484375 -0.84375 -1.984375q-0.46875 0.3125 -1.046875 0.3125q-0.65625 0 -1.140625 -0.46875q-0.46875 -0.484375 -0.46875 -1.140625q0 -0.65625 0.46875 -1.125q0.484375 -0.46875 1.140625 -0.46875q0.8125 0 1.375 0.5q0.578125 0.484375 1.0625 1.734375q0.65625 1.75 0.828125 2.171875q0.1875 0.40625 0.390625 0.40625q0.515625 0 0.515625 -1.109375l0 -4.359375q0 -1.234375 -0.671875 -1.796875q-0.65625 -0.5625 -1.984375 -0.5625q-2.359375 0 -2.84375 1.796875l-1.46875 -0.203125q0.640625 -2.984375 4.546875 -2.984375q2.015625 0 2.96875 0.859375q0.96875 0.859375 0.96875 2.78125l0 4.203125zm-5.6875 -1.28125q0.21875 0 0.390625 -0.171875q0.171875 -0.171875 0.171875 -0.390625q0 -0.21875 -0.171875 -0.390625q-0.171875 -0.171875 -0.390625 -0.171875q-0.21875 0 -0.390625 0.171875q-0.171875 0.171875 -0.171875 0.390625q0 0.21875 0.171875 0.390625q0.171875 0.171875 0.390625 0.171875zm7.281952 -11.125q-0.34375 1.53125 -1.40625 2.359375q-1.0625 0.828125 -2.640625 0.828125q-1.28125 0 -2.109375 -0.59375q-0.828125 -0.609375 -0.828125 -1.515625q0 -0.609375 0.4375 -1.046875q0.421875 -0.4375 1.046875 -0.4375q0.59375 0 1.03125 0.4375q0.4375 0.4375 0.4375 1.03125q0 0.671875 -0.46875 1.078125q0.125 0.0625 0.453125 0.0625q2.5 0 3.03125 -2.203125l1.015625 0zm-5.5 1.546875q0.1875 0 0.328125 -0.140625q0.140625 -0.140625 0.140625 -0.34375q0 -0.1875 -0.140625 -0.328125q-0.140625 -0.15625 -0.328125 -0.15625q-0.203125 0 -0.34375 0.15625q-0.140625 0.140625 -0.140625 0.328125q0 0.203125 0.140625 0.34375q0.140625 0.140625 0.34375 0.140625zm15.203125 13.421875l-1.515625 0l0 -6.9375q0 -0.875 -0.84375 -1.46875q-0.828125 -0.609375 -2.03125 -0.609375q-1.265625 0 -2.15625 0.671875q-0.890625 0.671875 -0.890625 1.71875q0 0.859375 0.546875 2.765625q0.390625 1.375 0.390625 1.828125q0.109375 -0.171875 0.5625 -0.6875q0.703125 -0.828125 0.890625 -1.1875q-0.515625 -0.171875 -0.828125 -0.59375q-0.3125 -0.421875 -0.3125 -0.953125q0 -0.65625 0.46875 -1.125q0.46875 -0.46875 1.125 -0.46875q0.65625 0 1.125 0.46875q0.484375 0.46875 0.484375 1.125l0 0.078125q0 0.640625 -0.375 1.375q-0.375 0.71875 -1.71875 2.0q-0.953125 0.921875 -1.1875 1.3125q-0.234375 0.390625 -0.234375 0.6875l-1.5 0l0 -1.515625q0 -0.796875 -0.453125 -2.5625q-0.46875 -1.796875 -0.46875 -2.625q0 -1.46875 1.203125 -2.578125q1.203125 -1.125 3.296875 -1.125q2.015625 0 3.21875 0.984375q1.203125 0.96875 1.203125 2.4375l0 6.984375zm-4.59375 -4.890625q0.21875 0 0.390625 -0.171875q0.171875 -0.171875 0.171875 -0.390625q0 -0.21875 -0.171875 -0.375q-0.171875 -0.171875 -0.390625 -0.171875q-0.21875 0 -0.390625 0.171875q-0.171875 0.15625 -0.171875 0.375q0 0.21875 0.171875 0.390625q0.171875 0.171875 0.390625 0.171875zm15.565399 4.890625l-1.515625 0l0 -6.921875q0 -0.828125 -0.796875 -1.453125q-0.796875 -0.640625 -2.03125 -0.640625q-0.84375 0 -1.515625 0.296875q-0.671875 0.296875 -0.96875 0.75q1.40625 0.265625 1.890625 1.40625q-0.828125 0.1875 -1.28125 0.71875q-0.453125 0.515625 -0.453125 1.234375l0 4.609375l-1.515625 0l0 -4.5625q0 -1.546875 1.453125 -2.0q-0.25 -0.375 -1.953125 -0.375q0 -1.46875 1.1875 -2.46875q1.203125 -1.0 3.15625 -1.0q1.953125 0 3.140625 0.96875q1.203125 0.96875 1.203125 2.421875l0 7.015625zm9.260712 0l-1.515625 0l0 -6.65625q0 -1.0625 -0.546875 -1.703125q-0.546875 -0.65625 -1.5625 -0.65625q-1.78125 0 -2.28125 1.796875l-1.46875 -0.203125q0.703125 -2.984375 4.0 -2.984375q3.375 0 3.375 3.6875l0 6.71875zm9.552124 -9.1875q-0.5625 0.171875 -1.71875 0.171875l-2.5625 -0.109375q-0.765625 0 -1.171875 0.40625q-0.390625 0.390625 -0.390625 0.90625q0 0.09375 0.015625 0.171875q0.953125 -0.1875 2.046875 -0.1875q1.875 0 2.71875 0.640625q0.84375 0.625 0.84375 2.578125l0 2.15625q0 1.21875 -0.53125 1.890625q-0.53125 0.65625 -1.53125 0.65625q-0.65625 0 -1.140625 -0.46875q-0.46875 -0.484375 -0.46875 -1.140625q0 -0.65625 0.46875 -1.125q0.484375 -0.46875 1.140625 -0.46875q0.28125 0 0.5625 0.078125l0 -1.53125q0 -0.96875 -0.40625 -1.46875q-0.40625 -0.515625 -1.65625 -0.515625q-1.734375 0 -3.296875 0.4375q-0.0625 -0.5625 -0.0625 -1.109375q0 -3.1875 2.84375 -3.1875l2.5625 0.109375q0.96875 0 1.5625 -0.15625l0.171875 1.265625zm-2.28125 8.234375q0.234375 0 0.390625 -0.15625q0.171875 -0.171875 0.171875 -0.40625q0 -0.21875 -0.171875 -0.375q-0.15625 -0.171875 -0.390625 -0.171875q-0.21875 0 -0.390625 0.171875q-0.171875 0.15625 -0.171875 0.375q0 0.234375 0.171875 0.40625q0.171875 0.15625 0.390625 0.15625zm14.158844 -0.9375q0 1.25 -0.421875 1.578125q-0.40625 0.3125 -1.703125 0.3125l-4.828125 0l0 -1.28125l1.328125 0l0 -4.703125q0 -1.09375 0.828125 -1.703125q0 -0.578125 -0.5 -1.09375q-0.5 -0.515625 -1.40625 -0.515625q-0.734375 0 -1.25 0.3125q-0.515625 0.296875 -0.640625 0.703125q0.21875 -0.046875 0.671875 -0.046875q0.65625 0 1.125 0.46875q0.46875 0.46875 0.46875 1.125q0 0.65625 -0.46875 1.140625q-0.46875 0.46875 -1.125 0.46875q-0.9375 0 -1.578125 -0.703125q-0.625 -0.71875 -0.625 -1.765625q0 -1.28125 1.015625 -2.046875q1.03125 -0.765625 2.40625 -0.765625q1.46875 0 2.4375 0.765625q0.984375 0.75 0.984375 1.953125q-0.84375 0.609375 -0.84375 1.703125l0 4.703125l2.125 0q0.5 0 0.5 -0.609375l0 -8.4375l1.5 0l0 8.4375zm-7.921875 -4.28125q0.21875 0 0.390625 -0.171875q0.171875 -0.171875 0.171875 -0.390625q0 -0.21875 -0.171875 -0.390625q-0.171875 -0.171875 -0.390625 -0.171875q-0.21875 0 -0.390625 0.171875q-0.171875 0.171875 -0.171875 0.390625q0 0.21875 0.171875 0.390625q0.171875 0.171875 0.390625 0.171875zm9.353943 -7.640625q-0.484375 1.21875 -1.734375 2.015625q-1.265625 0.78125 -2.78125 0.78125l-0.6875 0l0 -0.734375q0.515625 -0.375 0.796875 -0.953125q-0.453125 0 -0.765625 -0.3125q-0.328125 -0.328125 -0.328125 -0.78125q0 -0.4375 0.328125 -0.75q0.3125 -0.328125 0.765625 -0.328125q0.53125 0 0.90625 0.34375q0.359375 0.34375 0.359375 0.96875q0 0.71875 -0.78125 1.5625q2.328125 -0.328125 3.15625 -2.703125l0.765625 0.890625zm-4.40625 0.421875q0.171875 0 0.296875 -0.109375q0.109375 -0.125 0.109375 -0.296875q0 -0.15625 -0.109375 -0.28125q-0.125 -0.125 -0.296875 -0.125q-0.171875 0 -0.296875 0.125q-0.125 0.125 -0.125 0.28125q0 0.171875 0.125 0.296875q0.125 0.109375 0.296875 0.109375zm13.546875 11.5q0 1.25 -0.421875 1.578125q-0.421875 0.3125 -1.71875 0.3125l-3.5 0q-1.3125 0 -1.71875 -0.3125q-0.40625 -0.328125 -0.40625 -1.578125l0 -1.84375q0 -1.171875 0.53125 -1.859375q0.546875 -0.6875 1.53125 -0.6875q0.65625 0 1.125 0.46875q0.484375 0.46875 0.484375 1.125q0 0.65625 -0.484375 1.140625q-0.46875 0.46875 -1.125 0.46875q-0.265625 0 -0.5625 -0.09375l0 1.34375q0 0.546875 0.484375 0.546875l3.765625 0q0.5 0 0.5 -0.546875l0 -4.8125q0 -1.109375 -0.578125 -1.734375q-0.578125 -0.640625 -2.09375 -0.640625q-2.359375 0 -2.828125 1.796875l-1.484375 -0.203125q0.65625 -2.984375 4.546875 -2.984375q2.015625 0 2.984375 0.859375q0.96875 0.859375 0.96875 2.78125l0 4.875zm-5.703125 -2.234375q0.21875 0 0.390625 -0.171875q0.171875 -0.171875 0.171875 -0.390625q0 -0.21875 -0.171875 -0.375q-0.15625 -0.171875 -0.390625 -0.171875q-0.21875 0 -0.390625 0.171875q-0.171875 0.15625 -0.171875 0.375q0 0.21875 0.171875 0.390625q0.171875 0.171875 0.390625 0.171875zm16.526642 4.125l-1.578125 0q-1.953125 -1.734375 -3.625 -2.484375q0 2.578125 -2.078125 2.578125q-0.75 0 -1.171875 -0.4375q-0.421875 -0.453125 -0.421875 -1.234375q0 -0.765625 0.578125 -1.34375q0.59375 -0.578125 1.578125 -0.734375l0 -3.65625q-0.28125 0.109375 -0.546875 0.109375q-0.65625 0 -1.140625 -0.46875q-0.46875 -0.484375 -0.46875 -1.140625q0 -0.65625 0.46875 -1.125q0.46875 -0.46875 1.140625 -0.46875q0.96875 0 1.515625 0.671875q0.546875 0.671875 0.546875 1.875l0 4.328125q1.703125 0.671875 3.6875 2.203125l0 -9.0l1.515625 0l0 10.328125zm-7.265625 -9.359375q-0.234375 0 -0.40625 0.171875q-0.15625 0.15625 -0.15625 0.375q0 0.234375 0.15625 0.40625q0.171875 0.15625 0.40625 0.15625q0.21875 0 0.375 -0.15625q0.171875 -0.171875 0.171875 -0.40625q0 -0.21875 -0.171875 -0.375q-0.15625 -0.171875 -0.375 -0.171875zm0.546875 7.59375l0 -0.859375q-0.5 0.078125 -0.8125 0.375q-0.296875 0.296875 -0.296875 0.671875q0 0.25 0.15625 0.4375q0.171875 0.1875 0.390625 0.1875q0.234375 0 0.390625 -0.21875q0.171875 -0.21875 0.171875 -0.59375zm6.4496765 5.609375l-3.53125 0l0 -1.046875q-0.453125 0 -0.765625 -0.328125q-0.328125 -0.3125 -0.328125 -0.75q0 -0.4375 0.328125 -0.765625q0.3125 -0.3125 0.765625 -0.3125q0.4375 0 0.765625 0.3125q0.3125 0.328125 0.3125 0.765625l0 1.25l1.375 0l0 -2.296875l1.078125 0l0 3.171875zm-3.53125 -1.71875q0.15625 0 0.28125 -0.125q0.125 -0.109375 0.125 -0.28125q0 -0.171875 -0.125 -0.296875q-0.125 -0.125 -0.28125 -0.125q-0.171875 0 -0.296875 0.125q-0.125 0.125 -0.125 0.296875q0 0.171875 0.125 0.28125q0.125 0.125 0.296875 0.125zm14.515625 -2.125l-1.515625 0l0 -1.921875q-0.453125 -1.40625 -1.34375 -2.34375q-0.875 -0.953125 -1.875 -0.953125q-0.890625 0 -1.328125 0.484375q-0.4375 0.484375 -0.4375 1.4375l0 0.265625q0.28125 -0.078125 0.5625 -0.078125q0.65625 0 1.125 0.46875q0.484375 0.46875 0.484375 1.125q0 0.65625 -0.484375 1.140625q-0.46875 0.46875 -1.125 0.46875q-0.984375 0 -1.53125 -0.65625q-0.546875 -0.671875 -0.546875 -1.890625l0 -0.875q0 -1.4375 0.875 -2.3125q0.875 -0.875 2.421875 -0.875q1.03125 0 1.890625 0.609375q0.859375 0.609375 1.3125 1.640625l0 -2.390625q0 -1.09375 -0.578125 -1.71875q-0.578125 -0.640625 -2.09375 -0.640625q-1.171875 0 -1.890625 0.453125q-0.703125 0.453125 -0.9375 1.34375l-1.484375 -0.203125q0.328125 -1.5 1.46875 -2.234375q1.140625 -0.75 3.09375 -0.75q2.015625 0 2.96875 0.859375q0.96875 0.859375 0.96875 2.78125l0 6.765625zm-5.9375 -0.953125q0.21875 0 0.390625 -0.15625q0.171875 -0.171875 0.171875 -0.40625q0 -0.21875 -0.171875 -0.375q-0.171875 -0.171875 -0.390625 -0.171875q-0.21875 0 -0.390625 0.171875q-0.171875 0.15625 -0.171875 0.375q0 0.234375 0.171875 0.40625q0.171875 0.15625 0.390625 0.15625zm16.55008 0.953125l-1.515625 0l0 -1.921875q-0.453125 -1.40625 -1.34375 -2.34375q-0.875 -0.953125 -1.875 -0.953125q-0.890625 0 -1.328125 0.484375q-0.4375 0.484375 -0.4375 1.4375l0 0.265625q0.28125 -0.078125 0.5625 -0.078125q0.65625 0 1.125 0.46875q0.484375 0.46875 0.484375 1.125q0 0.65625 -0.484375 1.140625q-0.46875 0.46875 -1.125 0.46875q-0.984375 0 -1.53125 -0.65625q-0.546875 -0.671875 -0.546875 -1.890625l0 -0.875q0 -1.4375 0.875 -2.3125q0.875 -0.875 2.421875 -0.875q1.03125 0 1.890625 0.609375q0.859375 0.609375 1.3125 1.640625l0 -2.390625q0 -1.09375 -0.578125 -1.71875q-0.578125 -0.640625 -2.09375 -0.640625q-1.171875 0 -1.890625 0.453125q-0.703125 0.453125 -0.9375 1.34375l-1.484375 -0.203125q0.328125 -1.5 1.46875 -2.234375q1.140625 -0.75 3.09375 -0.75q2.015625 0 2.96875 0.859375q0.96875 0.859375 0.96875 2.78125l0 6.765625zm-5.9375 -0.953125q0.21875 0 0.390625 -0.15625q0.171875 -0.171875 0.171875 -0.40625q0 -0.21875 -0.171875 -0.375q-0.171875 -0.171875 -0.390625 -0.171875q-0.21875 0 -0.390625 0.171875q-0.171875 0.15625 -0.171875 0.375q0 0.234375 0.171875 0.40625q0.171875 0.15625 0.390625 0.15625zm5.565674 4.796875l-3.53125 0l0 -1.046875q-0.453125 0 -0.765625 -0.328125q-0.328125 -0.3125 -0.328125 -0.75q0 -0.4375 0.328125 -0.765625q0.3125 -0.3125 0.765625 -0.3125q0.4375 0 0.765625 0.3125q0.3125 0.328125 0.3125 0.765625l0 1.25l1.375 0l0 -2.296875l1.078125 0l0 3.171875zm-3.53125 -1.71875q0.15625 0 0.28125 -0.125q0.125 -0.109375 0.125 -0.28125q0 -0.171875 -0.125 -0.296875q-0.125 -0.125 -0.28125 -0.125q-0.171875 0 -0.296875 0.125q-0.125 0.125 -0.125 0.296875q0 0.171875 0.125 0.28125q0.125 0.125 0.296875 0.125zm14.90625 -2.125l-1.515625 0l0 -6.921875q0 -0.828125 -0.796875 -1.453125q-0.796875 -0.640625 -2.03125 -0.640625q-0.84375 0 -1.515625 0.296875q-0.671875 0.296875 -0.96875 0.75q1.40625 0.265625 1.890625 1.40625q-0.828125 0.1875 -1.28125 0.71875q-0.453125 0.515625 -0.453125 1.234375l0 4.609375l-1.515625 0l0 -4.5625q0 -1.546875 1.453125 -2.0q-0.25 -0.375 -1.953125 -0.375q0 -1.46875 1.1875 -2.46875q1.203125 -1.0 3.15625 -1.0q1.953125 0 3.140625 0.96875q1.203125 0.96875 1.203125 2.421875l0 7.015625zm11.291992 0l-1.515625 0l0 -6.9375q0 -0.875 -0.84375 -1.46875q-0.828125 -0.609375 -2.03125 -0.609375q-1.265625 0 -2.15625 0.671875q-0.890625 0.671875 -0.890625 1.71875q0 0.875 0.328125 2.03125q0.109375 0.375 0.15625 0.53125q0.265625 -1.40625 0.921875 -2.1875q0.65625 -0.796875 1.53125 -0.796875q0.65625 0 1.125 0.46875q0.484375 0.46875 0.484375 1.125q0 0.65625 -0.484375 1.140625q-0.46875 0.46875 -1.125 0.46875q-0.71875 0 -1.171875 -0.5625q-0.828125 0.75 -0.828125 2.078125l0 2.328125l-1.5 0l0 -1.515625q0 -0.765625 -0.46875 -2.609375q-0.453125 -1.828125 -0.453125 -2.578125q0 -1.46875 1.203125 -2.578125q1.203125 -1.125 3.296875 -1.125q2.015625 0 3.21875 0.984375q1.203125 0.96875 1.203125 2.4375l0 6.984375zm-4.5 -4.890625q0.21875 0 0.390625 -0.171875q0.171875 -0.171875 0.171875 -0.390625q0 -0.21875 -0.171875 -0.375q-0.171875 -0.171875 -0.390625 -0.171875q-0.21875 0 -0.390625 0.171875q-0.171875 0.15625 -0.171875 0.375q0 0.21875 0.171875 0.390625q0.171875 0.171875 0.390625 0.171875zm5.9819336 -8.921875q-0.484375 1.21875 -1.734375 2.015625q-1.265625 0.78125 -2.78125 0.78125l-0.6875 0l0 -0.734375q0.515625 -0.375 0.796875 -0.953125q-0.453125 0 -0.765625 -0.3125q-0.328125 -0.328125 -0.328125 -0.78125q0 -0.4375 0.328125 -0.75q0.3125 -0.328125 0.765625 -0.328125q0.53125 0 0.90625 0.34375q0.359375 0.34375 0.359375 0.96875q0 0.71875 -0.78125 1.5625q2.328125 -0.328125 3.15625 -2.703125l0.765625 0.890625zm-4.40625 0.421875q0.171875 0 0.296875 -0.109375q0.109375 -0.125 0.109375 -0.296875q0 -0.15625 -0.109375 -0.28125q-0.125 -0.125 -0.296875 -0.125q-0.171875 0 -0.296875 0.125q-0.125 0.125 -0.125 0.28125q0 0.171875 0.125 0.296875q0.125 0.109375 0.296875 0.109375zm12.234375 13.390625l-1.515625 0l0 -6.65625q0 -1.0625 -0.546875 -1.703125q-0.546875 -0.65625 -1.5625 -0.65625q-1.78125 0 -2.28125 1.796875l-1.46875 -0.203125q0.703125 -2.984375 4.0 -2.984375q3.375 0 3.375 3.6875l0 6.71875z" fill-rule="nonzero"/><path fill="#f3f3f3" d="m77.24147 158.61942l115.87401 0l0 42.582687l-115.87401 0z" fill-rule="evenodd"/><path stroke="#000000" stroke-width="1.0" stroke-linejoin="round" stroke-linecap="butt" d="m77.24147 158.61942l115.87401 0l0 42.582687l-115.87401 0z" fill-rule="evenodd"/><path fill="#000000" d="m116.287186 186.83076l-1.515625 0l0 -1.921875q-0.453125 -1.40625 -1.34375 -2.34375q-0.875 -0.953125 -1.875 -0.953125q-0.890625 0 -1.328125 0.484375q-0.4375 0.484375 -0.4375 1.4375l0 0.265625q0.28125 -0.078125 0.5625 -0.078125q0.65625 0 1.125 0.46875q0.484375 0.46875 0.484375 1.125q0 0.65625 -0.484375 1.140625q-0.46875 0.46875 -1.125 0.46875q-0.984375 0 -1.53125 -0.65625q-0.546875 -0.671875 -0.546875 -1.890625l0 -0.875q0 -1.4375 0.875 -2.3125q0.875 -0.875 2.421875 -0.875q1.03125 0 1.890625 0.609375q0.859375 0.609375 1.3125 1.640625l0 -2.390625q0 -1.09375 -0.578125 -1.71875q-0.578125 -0.640625 -2.09375 -0.640625q-1.171875 0 -1.890625 0.453125q-0.703125 0.453125 -0.9375 1.34375l-1.484375 -0.203125q0.328125 -1.5 1.46875 -2.234375q1.140625 -0.75 3.09375 -0.75q2.015625 0 2.96875 0.859375q0.96875 0.859375 0.96875 2.78125l0 6.765625zm-5.9375 -0.953125q0.21875 0 0.390625 -0.15625q0.171875 -0.171875 0.171875 -0.40625q0 -0.21875 -0.171875 -0.375q-0.171875 -0.171875 -0.390625 -0.171875q-0.21875 0 -0.390625 0.171875q-0.171875 0.15625 -0.171875 0.375q0 0.234375 0.171875 0.40625q0.171875 0.15625 0.390625 0.15625zm5.565689 4.796875l-3.53125 0l0 -1.046875q-0.453125 0 -0.765625 -0.328125q-0.328125 -0.3125 -0.328125 -0.75q0 -0.4375 0.328125 -0.765625q0.3125 -0.3125 0.765625 -0.3125q0.4375 0 0.765625 0.3125q0.3125 0.328125 0.3125 0.765625l0 1.25l1.375 0l0 -2.296875l1.078125 0l0 3.171875zm-3.53125 -1.71875q0.15625 0 0.28125 -0.125q0.125 -0.109375 0.125 -0.28125q0 -0.171875 -0.125 -0.296875q-0.125 -0.125 -0.28125 -0.125q-0.171875 0 -0.296875 0.125q-0.125 0.125 -0.125 0.296875q0 0.171875 0.125 0.28125q0.125 0.125 0.296875 0.125zm14.90625 -2.125l-1.515625 0l0 -6.921875q0 -0.828125 -0.796875 -1.453125q-0.796875 -0.640625 -2.03125 -0.640625q-0.84375 0 -1.515625 0.296875q-0.671875 0.296875 -0.96875 0.75q1.40625 0.265625 1.890625 1.40625q-0.828125 0.1875 -1.28125 0.71875q-0.453125 0.515625 -0.453125 1.234375l0 4.609375l-1.515625 0l0 -4.5625q0 -1.546875 1.453125 -2.0q-0.25 -0.375 -1.953125 -0.375q0 -1.46875 1.1875 -2.46875q1.203125 -1.0 3.15625 -1.0q1.953125 0 3.140625 0.96875q1.203125 0.96875 1.203125 2.421875l0 7.015625zm11.291977 0l-1.515625 0l0 -6.9375q0 -0.875 -0.84375 -1.46875q-0.828125 -0.609375 -2.03125 -0.609375q-1.265625 0 -2.15625 0.671875q-0.890625 0.671875 -0.890625 1.71875q0 0.875 0.328125 2.03125q0.109375 0.375 0.15625 0.53125q0.265625 -1.40625 0.921875 -2.1875q0.65625 -0.796875 1.53125 -0.796875q0.65625 0 1.125 0.46875q0.484375 0.46875 0.484375 1.125q0 0.65625 -0.484375 1.140625q-0.46875 0.46875 -1.125 0.46875q-0.71875 0 -1.171875 -0.5625q-0.828125 0.75 -0.828125 2.078125l0 2.328125l-1.5 0l0 -1.515625q0 -0.765625 -0.46875 -2.609375q-0.453125 -1.828125 -0.453125 -2.578125q0 -1.46875 1.203125 -2.578125q1.203125 -1.125 3.296875 -1.125q2.015625 0 3.21875 0.984375q1.203125 0.96875 1.203125 2.4375l0 6.984375zm-4.5 -4.890625q0.21875 0 0.390625 -0.171875q0.171875 -0.171875 0.171875 -0.390625q0 -0.21875 -0.171875 -0.375q-0.171875 -0.171875 -0.390625 -0.171875q-0.21875 0 -0.390625 0.171875q-0.171875 0.15625 -0.171875 0.375q0 0.21875 0.171875 0.390625q0.171875 0.171875 0.390625 0.171875zm5.981949 -8.921875q-0.484375 1.21875 -1.734375 2.015625q-1.265625 0.78125 -2.78125 0.78125l-0.6875 0l0 -0.734375q0.515625 -0.375 0.796875 -0.953125q-0.453125 0 -0.765625 -0.3125q-0.328125 -0.328125 -0.328125 -0.78125q0 -0.4375 0.328125 -0.75q0.3125 -0.328125 0.765625 -0.328125q0.53125 0 0.90625 0.34375q0.359375 0.34375 0.359375 0.96875q0 0.71875 -0.78125 1.5625q2.328125 -0.328125 3.15625 -2.703125l0.765625 0.890625zm-4.40625 0.421875q0.171875 0 0.296875 -0.109375q0.109375 -0.125 0.109375 -0.296875q0 -0.15625 -0.109375 -0.28125q-0.125 -0.125 -0.296875 -0.125q-0.171875 0 -0.296875 0.125q-0.125 0.125 -0.125 0.28125q0 0.171875 0.125 0.296875q0.125 0.109375 0.296875 0.109375zm12.234375 13.390625l-1.515625 0l0 -6.65625q0 -1.0625 -0.546875 -1.703125q-0.546875 -0.65625 -1.5625 -0.65625q-1.78125 0 -2.28125 1.796875l-1.46875 -0.203125q0.703125 -2.984375 4.0 -2.984375q3.375 0 3.375 3.6875l0 6.71875z" fill-rule="nonzero"/><path fill="#000000" fill-opacity="0.0" d="m70.343834 520.0l115.874016 0l0 42.582703l-115.874016 0z" fill-rule="evenodd"/><path stroke="#000000" stroke-width="1.0" stroke-linejoin="round" stroke-linecap="butt" d="m70.343834 520.0l115.874016 0l0 42.582703l-115.874016 0z" fill-rule="evenodd"/><path fill="#000000" d="m104.78437 548.21136l-1.515625 0l0 -6.9375q0 -0.875 -0.84375 -1.46875q-0.828125 -0.609375 -2.03125 -0.609375q-1.265625 0 -2.15625 0.671875q-0.890625 0.671875 -0.890625 1.71875q0 0.875 0.328125 2.03125q0.109375 0.375 0.15625 0.53125q0.265625 -1.40625 0.921875 -2.1875q0.65625 -0.796875 1.53125 -0.796875q0.65625 0 1.125 0.46875q0.484375 0.46875 0.484375 1.125q0 0.65625 -0.484375 1.140625q-0.46875 0.46875 -1.125 0.46875q-0.71875 0 -1.171875 -0.5625q-0.828125 0.75 -0.828125 2.078125l0 2.328125l-1.5 0l0 -1.515625q0 -0.765625 -0.46875 -2.609375q-0.453125 -1.828125 -0.453125 -2.578125q0 -1.46875 1.203125 -2.578125q1.203125 -1.125 3.296875 -1.125q2.015625 0 3.21875 0.984375q1.203125 0.96875 1.203125 2.4375l0 6.984375zm-4.5 -4.890625q0.21875 0 0.390625 -0.171875q0.171875 -0.171875 0.171875 -0.390625q0 -0.21875 -0.171875 -0.375q-0.171875 -0.171875 -0.390625 -0.171875q-0.21875 0 -0.390625 0.171875q-0.171875 0.15625 -0.171875 0.375q0 0.21875 0.171875 0.390625q0.171875 0.171875 0.390625 0.171875zm10.263199 4.890625l-1.59375 0l0 -7.296875q-0.28125 0.09375 -0.546875 0.09375q-0.65625 0 -1.140625 -0.46875q-0.46875 -0.484375 -0.46875 -1.140625q0 -0.65625 0.46875 -1.125q0.46875 -0.46875 1.140625 -0.46875q0.984375 0 1.515625 0.671875q0.546875 0.65625 0.546875 1.875l0 6.53125q2.0 -1.53125 3.6875 -2.203125l0 -6.796875l1.515625 0l0 6.671875q1.0 0.15625 1.578125 0.734375q0.59375 0.578125 0.59375 1.34375q0 0.78125 -0.4375 1.234375q-0.421875 0.4375 -1.15625 0.4375q-2.09375 0 -2.09375 -2.578125q-1.671875 0.75 -3.609375 2.484375zm-2.140625 -9.359375q-0.234375 0 -0.40625 0.171875q-0.15625 0.15625 -0.15625 0.375q0 0.234375 0.15625 0.40625q0.171875 0.15625 0.40625 0.15625q0.21875 0 0.375 -0.15625q0.171875 -0.171875 0.171875 -0.40625q0 -0.21875 -0.171875 -0.375q-0.15625 -0.171875 -0.375 -0.171875zm7.265625 6.734375l0 0.859375q0 0.375 0.15625 0.59375q0.171875 0.21875 0.421875 0.21875q0.21875 0 0.375 -0.1875q0.171875 -0.1875 0.171875 -0.4375q0 -0.375 -0.3125 -0.671875q-0.3125 -0.296875 -0.8125 -0.375zm13.411171 0.734375q0 1.25 -0.421875 1.578125q-0.40625 0.3125 -1.7031174 0.3125l-4.828125 0l0 -1.28125l1.328125 0l0 -4.703125q0 -1.09375 0.828125 -1.703125q0 -0.578125 -0.5 -1.09375q-0.5 -0.515625 -1.40625 -0.515625q-0.734375 0 -1.25 0.3125q-0.515625 0.296875 -0.640625 0.703125q0.21875 -0.046875 0.671875 -0.046875q0.65625 0 1.125 0.46875q0.46875 0.46875 0.46875 1.125q0 0.65625 -0.46875 1.140625q-0.46875 0.46875 -1.125 0.46875q-0.9375 0 -1.578125 -0.703125q-0.625 -0.71875 -0.625 -1.765625q0 -1.28125 1.015625 -2.046875q1.03125 -0.765625 2.40625 -0.765625q1.46875 0 2.4375 0.765625q0.984375 0.75 0.984375 1.953125q-0.84375 0.609375 -0.84375 1.703125l0 4.703125l2.125 0q0.5 0 0.5 -0.609375l0 -8.4375l1.4999924 0l0 8.4375zm-7.9218674 -4.28125q0.21875 0 0.390625 -0.171875q0.171875 -0.171875 0.171875 -0.390625q0 -0.21875 -0.171875 -0.390625q-0.171875 -0.171875 -0.390625 -0.171875q-0.21875 0 -0.390625 0.171875q-0.171875 0.171875 -0.171875 0.390625q0 0.21875 0.171875 0.390625q0.171875 0.171875 0.390625 0.171875zm17.182045 6.171875l-1.515625 0l0 -6.65625q0 -1.0625 -0.546875 -1.703125q-0.546875 -0.65625 -1.5625 -0.65625q-1.78125 0 -2.28125 1.796875l-1.46875 -0.203125q0.703125 -2.984375 4.0 -2.984375q3.375 0 3.375 3.6875l0 6.71875zm10.973999 -1.890625q0 1.25 -0.421875 1.578125q-0.40625 0.3125 -1.71875 0.3125l-3.90625 0q-1.3125 0 -1.71875 -0.3125q-0.40625 -0.328125 -0.40625 -1.578125l0 -1.53125q0 -0.78125 0.40625 -1.296875q0.421875 -0.515625 1.171875 -0.640625q-1.578125 -0.28125 -1.578125 -1.9375l0 -0.5625q0 -1.171875 0.546875 -1.859375q0.546875 -0.6875 1.515625 -0.6875q0.65625 0 1.125 0.484375q0.484375 0.46875 0.484375 1.109375q0 0.65625 -0.484375 1.140625q-0.46875 0.46875 -1.125 0.46875q-0.265625 0 -0.5625 -0.09375q0 0.71875 0.5 1.125q0.5 0.390625 1.46875 0.390625l0 0.859375q-1.96875 0 -1.96875 1.71875l0 1.375q0 0.546875 0.484375 0.546875l4.171875 0q0.5 0 0.5 -0.546875l0 -8.5l1.515625 0l0 8.4375zm-6.109375 -6.359375q0.21875 0 0.390625 -0.15625q0.171875 -0.171875 0.171875 -0.40625q0 -0.21875 -0.171875 -0.375q-0.171875 -0.171875 -0.390625 -0.171875q-0.21875 0 -0.390625 0.171875q-0.171875 0.15625 -0.171875 0.375q0 0.234375 0.171875 0.40625q0.171875 0.15625 0.390625 0.15625z" fill-rule="nonzero"/><path stroke="#9e9e9e" stroke-width="1.0" stroke-linecap="butt" d="m295.16666 492.70078l0 83.39108" fill-rule="nonzero"/><path stroke="#9e9e9e" stroke-width="1.0" stroke-linecap="butt" d="m555.85693 492.70078l0 83.39108" fill-rule="nonzero"/><path stroke="#9e9e9e" stroke-width="1.0" stroke-linecap="butt" d="m294.66797 493.19946l261.68768 0" fill-rule="nonzero"/><path stroke="#9e9e9e" stroke-width="1.0" stroke-linecap="butt" d="m294.66797 534.3963l261.68768 0" fill-rule="nonzero"/><path stroke="#9e9e9e" stroke-width="1.0" stroke-linecap="butt" d="m294.66797 575.5932l261.68768 0" fill-rule="nonzero"/><path fill="#000000" d="m422.40668 518.5413l0 1.578125l-8.828125 0q-0.015625 -0.59375 0.1875 -1.140625q0.34375 -0.90625 1.078125 -1.78125q0.75 -0.875 2.15625 -2.015625q2.171875 -1.78125 2.9375 -2.828125q0.765625 -1.0468445 0.765625 -1.9687195q0 -0.984375 -0.703125 -1.640625q-0.6875 -0.671875 -1.8125 -0.671875q-1.1875 0 -1.90625 0.71875q-0.703125 0.703125 -0.703125 1.953125l-1.6875 -0.171875q0.171875 -1.890625 1.296875 -2.875q1.140625 -0.984375 3.03125 -0.984375q1.921875 0 3.046875 1.0625q1.125 1.0625 1.125 2.640625q0 0.796875 -0.328125 1.578125q-0.328125 0.7812195 -1.09375 1.6405945q-0.75 0.84375 -2.53125 2.34375q-1.46875 1.234375 -1.890625 1.6875q-0.421875 0.4375 -0.6875 0.875l6.546875 0z" fill-rule="nonzero"/><path fill="#000000" d="m354.60184 558.75385q0 2.65625 -2.03125 2.65625q-0.640625 0 -1.078125 -0.359375q-0.4375 -0.375 -0.6875 -0.859375q-0.25 -0.484375 -0.84375 -1.984375q-0.46875 0.3125 -1.046875 0.3125q-0.65625 0 -1.140625 -0.46875q-0.46875 -0.484375 -0.46875 -1.140625q0 -0.65625 0.46875 -1.125q0.484375 -0.46875 1.140625 -0.46875q0.8125 0 1.375 0.5q0.578125 0.484375 1.0625 1.734375q0.65625 1.75 0.828125 2.171875q0.1875 0.40625 0.390625 0.40625q0.515625 0 0.515625 -1.109375l0 -4.359375q0 -1.234375 -0.671875 -1.796875q-0.65625 -0.5625 -1.984375 -0.5625q-2.359375 0 -2.84375 1.796875l-1.46875 -0.203125q0.640625 -2.984375 4.546875 -2.984375q2.015625 0 2.96875 0.859375q0.96875 0.859375 0.96875 2.78125l0 4.203125zm-5.6875 -1.28125q0.21875 0 0.390625 -0.171875q0.171875 -0.171875 0.171875 -0.390625q0 -0.21875 -0.171875 -0.390625q-0.171875 -0.171875 -0.390625 -0.171875q-0.21875 0 -0.390625 0.171875q-0.171875 0.171875 -0.171875 0.390625q0 0.21875 0.171875 0.390625q0.171875 0.171875 0.390625 0.171875zm7.2819824 -11.125q-0.34375 1.53125 -1.40625 2.359375q-1.0625 0.828125 -2.640625 0.828125q-1.28125 0 -2.109375 -0.59375q-0.828125 -0.609375 -0.828125 -1.515625q0 -0.609375 0.4375 -1.046875q0.421875 -0.4375 1.046875 -0.4375q0.59375 0 1.03125 0.4375q0.4375 0.4375 0.4375 1.03125q0 0.671875 -0.46875 1.078125q0.125 0.0625 0.453125 0.0625q2.5 0 3.03125 -2.203125l1.015625 0zm-5.5 1.546875q0.1875 0 0.328125 -0.140625q0.140625 -0.140625 0.140625 -0.34375q0 -0.1875 -0.140625 -0.328125q-0.140625 -0.15625 -0.328125 -0.15625q-0.203125 0 -0.34375 0.15625q-0.140625 0.140625 -0.140625 0.328125q0 0.203125 0.140625 0.34375q0.140625 0.140625 0.34375 0.140625zm15.203125 13.421875l-1.515625 0l0 -6.9375q0 -0.875 -0.84375 -1.46875q-0.828125 -0.609375 -2.03125 -0.609375q-1.265625 0 -2.15625 0.671875q-0.890625 0.671875 -0.890625 1.71875q0 0.859375 0.546875 2.765625q0.390625 1.375 0.390625 1.828125q0.109375 -0.171875 0.5625 -0.6875q0.703125 -0.828125 0.890625 -1.1875q-0.515625 -0.171875 -0.828125 -0.59375q-0.3125 -0.421875 -0.3125 -0.953125q0 -0.65625 0.46875 -1.125q0.46875 -0.46875 1.125 -0.46875q0.65625 0 1.125 0.46875q0.484375 0.46875 0.484375 1.125l0 0.078125q0 0.640625 -0.375 1.375q-0.375 0.71875 -1.71875 2.0q-0.953125 0.921875 -1.1875 1.3125q-0.234375 0.390625 -0.234375 0.6875l-1.5 0l0 -1.515625q0 -0.796875 -0.453125 -2.5625q-0.46875 -1.796875 -0.46875 -2.625q0 -1.46875 1.203125 -2.578125q1.203125 -1.125 3.296875 -1.125q2.015625 0 3.21875 0.984375q1.203125 0.96875 1.203125 2.4375l0 6.984375zm-4.59375 -4.890625q0.21875 0 0.390625 -0.171875q0.171875 -0.171875 0.171875 -0.390625q0 -0.21875 -0.171875 -0.375q-0.171875 -0.171875 -0.390625 -0.171875q-0.21875 0 -0.390625 0.171875q-0.171875 0.15625 -0.171875 0.375q0 0.21875 0.171875 0.390625q0.171875 0.171875 0.390625 0.171875zm15.565369 4.890625l-1.515625 0l0 -6.921875q0 -0.828125 -0.796875 -1.453125q-0.796875 -0.640625 -2.03125 -0.640625q-0.84375 0 -1.515625 0.296875q-0.671875 0.296875 -0.96875 0.75q1.40625 0.265625 1.890625 1.40625q-0.828125 0.1875 -1.28125 0.71875q-0.453125 0.515625 -0.453125 1.234375l0 4.609375l-1.515625 0l0 -4.5625q0 -1.546875 1.453125 -2.0q-0.25 -0.375 -1.953125 -0.375q0 -1.46875 1.1875 -2.46875q1.203125 -1.0 3.15625 -1.0q1.953125 0 3.140625 0.96875q1.203125 0.96875 1.203125 2.421875l0 7.015625zm9.260742 0l-1.515625 0l0 -6.65625q0 -1.0625 -0.546875 -1.703125q-0.546875 -0.65625 -1.5625 -0.65625q-1.78125 0 -2.28125 1.796875l-1.46875 -0.203125q0.703125 -2.984375 4.0 -2.984375q3.375 0 3.375 3.6875l0 6.71875zm9.552124 -9.1875q-0.5625 0.171875 -1.71875 0.171875l-2.5625 -0.109375q-0.765625 0 -1.171875 0.40625q-0.390625 0.390625 -0.390625 0.90625q0 0.09375 0.015625 0.171875q0.953125 -0.1875 2.046875 -0.1875q1.875 0 2.71875 0.640625q0.84375 0.625 0.84375 2.578125l0 2.15625q0 1.21875 -0.53125 1.890625q-0.53125 0.65625 -1.53125 0.65625q-0.65625 0 -1.140625 -0.46875q-0.46875 -0.484375 -0.46875 -1.140625q0 -0.65625 0.46875 -1.125q0.484375 -0.46875 1.140625 -0.46875q0.28125 0 0.5625 0.078125l0 -1.53125q0 -0.96875 -0.40625 -1.46875q-0.40625 -0.515625 -1.65625 -0.515625q-1.734375 0 -3.296875 0.4375q-0.0625 -0.5625 -0.0625 -1.109375q0 -3.1875 2.84375 -3.1875l2.5625 0.109375q0.96875 0 1.5625 -0.15625l0.171875 1.265625zm-2.28125 8.234375q0.234375 0 0.390625 -0.15625q0.171875 -0.171875 0.171875 -0.40625q0 -0.21875 -0.171875 -0.375q-0.15625 -0.171875 -0.390625 -0.171875q-0.21875 0 -0.390625 0.171875q-0.171875 0.15625 -0.171875 0.375q0 0.234375 0.171875 0.40625q0.171875 0.15625 0.390625 0.15625zm14.158844 -0.9375q0 1.25 -0.421875 1.578125q-0.40625 0.3125 -1.703125 0.3125l-4.828125 0l0 -1.28125l1.328125 0l0 -4.703125q0 -1.09375 0.828125 -1.703125q0 -0.578125 -0.5 -1.09375q-0.5 -0.515625 -1.40625 -0.515625q-0.734375 0 -1.25 0.3125q-0.515625 0.296875 -0.640625 0.703125q0.21875 -0.046875 0.671875 -0.046875q0.65625 0 1.125 0.46875q0.46875 0.46875 0.46875 1.125q0 0.65625 -0.46875 1.140625q-0.46875 0.46875 -1.125 0.46875q-0.9375 0 -1.578125 -0.703125q-0.625 -0.71875 -0.625 -1.765625q0 -1.28125 1.015625 -2.046875q1.03125 -0.765625 2.40625 -0.765625q1.46875 0 2.4375 0.765625q0.984375 0.75 0.984375 1.953125q-0.84375 0.609375 -0.84375 1.703125l0 4.703125l2.125 0q0.5 0 0.5 -0.609375l0 -8.4375l1.5 0l0 8.4375zm-7.921875 -4.28125q0.21875 0 0.390625 -0.171875q0.171875 -0.171875 0.171875 -0.390625q0 -0.21875 -0.171875 -0.390625q-0.171875 -0.171875 -0.390625 -0.171875q-0.21875 0 -0.390625 0.171875q-0.171875 0.171875 -0.171875 0.390625q0 0.21875 0.171875 0.390625q0.171875 0.171875 0.390625 0.171875zm9.353912 -7.640625q-0.484375 1.21875 -1.734375 2.015625q-1.265625 0.78125 -2.78125 0.78125l-0.6875 0l0 -0.734375q0.515625 -0.375 0.796875 -0.953125q-0.453125 0 -0.765625 -0.3125q-0.328125 -0.328125 -0.328125 -0.78125q0 -0.4375 0.328125 -0.75q0.3125 -0.328125 0.765625 -0.328125q0.53125 0 0.90625 0.34375q0.359375 0.34375 0.359375 0.96875q0 0.71875 -0.78125 1.5625q2.328125 -0.328125 3.15625 -2.703125l0.765625 0.890625zm-4.40625 0.421875q0.171875 0 0.296875 -0.109375q0.109375 -0.125 0.109375 -0.296875q0 -0.15625 -0.109375 -0.28125q-0.125 -0.125 -0.296875 -0.125q-0.171875 0 -0.296875 0.125q-0.125 0.125 -0.125 0.28125q0 0.171875 0.125 0.296875q0.125 0.109375 0.296875 0.109375zm13.546875 11.5q0 1.25 -0.421875 1.578125q-0.421875 0.3125 -1.71875 0.3125l-3.5 0q-1.3125 0 -1.71875 -0.3125q-0.40625 -0.328125 -0.40625 -1.578125l0 -1.84375q0 -1.171875 0.53125 -1.859375q0.546875 -0.6875 1.53125 -0.6875q0.65625 0 1.125 0.46875q0.484375 0.46875 0.484375 1.125q0 0.65625 -0.484375 1.140625q-0.46875 0.46875 -1.125 0.46875q-0.265625 0 -0.5625 -0.09375l0 1.34375q0 0.546875 0.484375 0.546875l3.765625 0q0.5 0 0.5 -0.546875l0 -4.8125q0 -1.109375 -0.578125 -1.734375q-0.578125 -0.640625 -2.09375 -0.640625q-2.359375 0 -2.828125 1.796875l-1.484375 -0.203125q0.65625 -2.984375 4.546875 -2.984375q2.015625 0 2.984375 0.859375q0.96875 0.859375 0.96875 2.78125l0 4.875zm-5.703125 -2.234375q0.21875 0 0.390625 -0.171875q0.171875 -0.171875 0.171875 -0.390625q0 -0.21875 -0.171875 -0.375q-0.15625 -0.171875 -0.390625 -0.171875q-0.21875 0 -0.390625 0.171875q-0.171875 0.15625 -0.171875 0.375q0 0.21875 0.171875 0.390625q0.171875 0.171875 0.390625 0.171875zm16.526672 4.125l-1.578125 0q-1.953125 -1.734375 -3.625 -2.484375q0 2.578125 -2.078125 2.578125q-0.75 0 -1.171875 -0.4375q-0.421875 -0.453125 -0.421875 -1.234375q0 -0.765625 0.578125 -1.34375q0.59375 -0.578125 1.578125 -0.734375l0 -3.65625q-0.28125 0.109375 -0.546875 0.109375q-0.65625 0 -1.140625 -0.46875q-0.46875 -0.484375 -0.46875 -1.140625q0 -0.65625 0.46875 -1.125q0.46875 -0.46875 1.140625 -0.46875q0.96875 0 1.515625 0.671875q0.546875 0.671875 0.546875 1.875l0 4.328125q1.703125 0.671875 3.6875 2.203125l0 -9.0l1.515625 0l0 10.328125zm-7.265625 -9.359375q-0.234375 0 -0.40625 0.171875q-0.15625 0.15625 -0.15625 0.375q0 0.234375 0.15625 0.40625q0.171875 0.15625 0.40625 0.15625q0.21875 0 0.375 -0.15625q0.171875 -0.171875 0.171875 -0.40625q0 -0.21875 -0.171875 -0.375q-0.15625 -0.171875 -0.375 -0.171875zm0.546875 7.59375l0 -0.859375q-0.5 0.078125 -0.8125 0.375q-0.296875 0.296875 -0.296875 0.671875q0 0.25 0.15625 0.4375q0.171875 0.1875 0.390625 0.1875q0.234375 0 0.390625 -0.21875q0.171875 -0.21875 0.171875 -0.59375zm6.4496765 5.609375l-3.53125 0l0 -1.046875q-0.453125 0 -0.765625 -0.328125q-0.328125 -0.3125 -0.328125 -0.75q0 -0.4375 0.328125 -0.765625q0.3125 -0.3125 0.765625 -0.3125q0.4375 0 0.765625 0.3125q0.3125 0.328125 0.3125 0.765625l0 1.25l1.375 0l0 -2.296875l1.078125 0l0 3.171875zm-3.53125 -1.71875q0.15625 0 0.28125 -0.125q0.125 -0.109375 0.125 -0.28125q0 -0.171875 -0.125 -0.296875q-0.125 -0.125 -0.28125 -0.125q-0.171875 0 -0.296875 0.125q-0.125 0.125 -0.125 0.296875q0 0.171875 0.125 0.28125q0.125 0.125 0.296875 0.125zm14.515625 -2.125l-1.515625 0l0 -1.921875q-0.453125 -1.40625 -1.34375 -2.34375q-0.875 -0.953125 -1.875 -0.953125q-0.890625 0 -1.328125 0.484375q-0.4375 0.484375 -0.4375 1.4375l0 0.265625q0.28125 -0.078125 0.5625 -0.078125q0.65625 0 1.125 0.46875q0.484375 0.46875 0.484375 1.125q0 0.65625 -0.484375 1.140625q-0.46875 0.46875 -1.125 0.46875q-0.984375 0 -1.53125 -0.65625q-0.546875 -0.671875 -0.546875 -1.890625l0 -0.875q0 -1.4375 0.875 -2.3125q0.875 -0.875 2.421875 -0.875q1.03125 0 1.890625 0.609375q0.859375 0.609375 1.3125 1.640625l0 -2.390625q0 -1.09375 -0.578125 -1.71875q-0.578125 -0.640625 -2.09375 -0.640625q-1.171875 0 -1.890625 0.453125q-0.703125 0.453125 -0.9375 1.34375l-1.484375 -0.203125q0.328125 -1.5 1.46875 -2.234375q1.140625 -0.75 3.09375 -0.75q2.015625 0 2.96875 0.859375q0.96875 0.859375 0.96875 2.78125l0 6.765625zm-5.9375 -0.953125q0.21875 0 0.390625 -0.15625q0.171875 -0.171875 0.171875 -0.40625q0 -0.21875 -0.171875 -0.375q-0.171875 -0.171875 -0.390625 -0.171875q-0.21875 0 -0.390625 0.171875q-0.171875 0.15625 -0.171875 0.375q0 0.234375 0.171875 0.40625q0.171875 0.15625 0.390625 0.15625zm15.393799 -8.234375q-0.5625 0.171875 -1.71875 0.171875l-2.5625 -0.109375q-0.765625 0 -1.171875 0.40625q-0.390625 0.390625 -0.390625 0.90625q0 0.09375 0.015625 0.171875q0.953125 -0.1875 2.046875 -0.1875q1.875 0 2.71875 0.640625q0.84375 0.625 0.84375 2.578125l0 2.15625q0 1.21875 -0.53125 1.890625q-0.53125 0.65625 -1.53125 0.65625q-0.65625 0 -1.140625 -0.46875q-0.46875 -0.484375 -0.46875 -1.140625q0 -0.65625 0.46875 -1.125q0.484375 -0.46875 1.140625 -0.46875q0.28125 0 0.5625 0.078125l0 -1.53125q0 -0.96875 -0.40625 -1.46875q-0.40625 -0.515625 -1.65625 -0.515625q-1.734375 0 -3.296875 0.4375q-0.0625 -0.5625 -0.0625 -1.109375q0 -3.1875 2.84375 -3.1875l2.5625 0.109375q0.96875 0 1.5625 -0.15625l0.171875 1.265625zm-2.28125 8.234375q0.234375 0 0.390625 -0.15625q0.171875 -0.171875 0.171875 -0.40625q0 -0.21875 -0.171875 -0.375q-0.15625 -0.171875 -0.390625 -0.171875q-0.21875 0 -0.390625 0.171875q-0.171875 0.15625 -0.171875 0.375q0 0.234375 0.171875 0.40625q0.171875 0.15625 0.390625 0.15625zm13.174469 0.953125l-1.515625 0l0 -6.921875q0 -0.828125 -0.796875 -1.453125q-0.796875 -0.640625 -2.03125 -0.640625q-0.84375 0 -1.515625 0.296875q-0.671875 0.296875 -0.96875 0.75q1.40625 0.265625 1.890625 1.40625q-0.828125 0.1875 -1.28125 0.71875q-0.453125 0.515625 -0.453125 1.234375l0 1.578125q0.28125 -0.078125 0.546875 -0.078125q0.65625 0 1.125 0.46875q0.484375 0.46875 0.484375 1.125q0 0.65625 -0.484375 1.140625q-0.46875 0.46875 -1.125 0.46875q-0.984375 0 -1.53125 -0.65625q-0.53125 -0.671875 -0.53125 -1.890625l0 -2.109375q0 -1.546875 1.453125 -2.0q-0.25 -0.375 -1.953125 -0.375q0 -1.46875 1.1875 -2.46875q1.203125 -1.0 3.15625 -1.0q1.953125 0 3.140625 0.96875q1.203125 0.96875 1.203125 2.421875l0 7.015625zm-6.125 -0.953125q0.234375 0 0.390625 -0.15625q0.171875 -0.171875 0.171875 -0.40625q0 -0.21875 -0.171875 -0.375q-0.15625 -0.171875 -0.390625 -0.171875q-0.21875 0 -0.390625 0.171875q-0.15625 0.15625 -0.15625 0.375q0 0.234375 0.15625 0.40625q0.171875 0.15625 0.390625 0.15625zm17.104492 -0.9375q0 1.25 -0.421875 1.578125q-0.40625 0.3125 -1.71875 0.3125l-3.90625 0q-1.3125 0 -1.71875 -0.3125q-0.40625 -0.328125 -0.40625 -1.578125l0 -1.53125q0 -0.78125 0.40625 -1.296875q0.421875 -0.515625 1.171875 -0.640625q-1.578125 -0.28125 -1.578125 -1.9375l0 -0.5625q0 -1.171875 0.546875 -1.859375q0.546875 -0.6875 1.515625 -0.6875q0.65625 0 1.125 0.484375q0.484375 0.46875 0.484375 1.109375q0 0.65625 -0.484375 1.140625q-0.46875 0.46875 -1.125 0.46875q-0.265625 0 -0.5625 -0.09375q0 0.71875 0.5 1.125q0.5 0.390625 1.46875 0.390625l0 0.859375q-1.96875 0 -1.96875 1.71875l0 1.375q0 0.546875 0.484375 0.546875l4.171875 0q0.5 0 0.5 -0.546875l0 -8.5l1.515625 0l0 8.4375zm-6.109375 -6.359375q0.21875 0 0.390625 -0.15625q0.171875 -0.171875 0.171875 -0.40625q0 -0.21875 -0.171875 -0.375q-0.171875 -0.171875 -0.390625 -0.171875q-0.21875 0 -0.390625 0.171875q-0.171875 0.15625 -0.171875 0.375q0 0.234375 0.171875 0.40625q0.171875 0.15625 0.390625 0.15625zm11.811584 8.25l-1.59375 0l0 -7.296875q-0.28125 0.09375 -0.546875 0.09375q-0.65625 0 -1.140625 -0.46875q-0.46875 -0.484375 -0.46875 -1.140625q0 -0.65625 0.46875 -1.125q0.46875 -0.46875 1.140625 -0.46875q0.984375 0 1.515625 0.671875q0.546875 0.65625 0.546875 1.875l0 6.53125q2.0 -1.53125 3.6875 -2.203125l0 -6.796875l1.515625 0l0 6.671875q1.0 0.15625 1.578125 0.734375q0.59375 0.578125 0.59375 1.34375q0 0.78125 -0.4375 1.234375q-0.421875 0.4375 -1.15625 0.4375q-2.09375 0 -2.09375 -2.578125q-1.671875 0.75 -3.609375 2.484375zm-2.140625 -9.359375q-0.234375 0 -0.40625 0.171875q-0.15625 0.15625 -0.15625 0.375q0 0.234375 0.15625 0.40625q0.171875 0.15625 0.40625 0.15625q0.21875 0 0.375 -0.15625q0.171875 -0.171875 0.171875 -0.40625q0 -0.21875 -0.171875 -0.375q-0.15625 -0.171875 -0.375 -0.171875zm7.265625 6.734375l0 0.859375q0 0.375 0.15625 0.59375q0.171875 0.21875 0.421875 0.21875q0.21875 0 0.375 -0.1875q0.171875 -0.1875 0.171875 -0.4375q0 -0.375 -0.3125 -0.671875q-0.3125 -0.296875 -0.8125 -0.375zm12.614288 2.625l-1.515625 0l0 -6.9375q0 -1.25 -1.328125 -2.03125l-1.546875 1.328125l-1.546875 -1.3125q-1.5 0.65625 -1.5 2.421875q0 0.53125 0.421875 2.109375q0.421875 1.65625 0.421875 2.25q0.125 -0.171875 0.640625 -0.671875q0.734375 -0.71875 0.90625 -1.0625q-0.515625 -0.171875 -0.828125 -0.59375q-0.3125 -0.421875 -0.3125 -0.953125q0 -0.65625 0.46875 -1.125q0.46875 -0.46875 1.125 -0.46875q0.65625 0 1.125 0.46875q0.484375 0.46875 0.484375 1.125l0 0.078125q0 0.640625 -0.375 1.375q-0.375 0.71875 -1.6875 2.0q-0.953125 0.921875 -1.1875 1.3125q-0.21875 0.390625 -0.21875 0.6875l-1.546875 0l0 -1.5q0 -0.828125 -0.453125 -2.515625q-0.46875 -1.703125 -0.46875 -2.53125q0 -2.75 2.984375 -3.890625l1.546875 1.34375l1.546875 -1.359375q1.28125 0.515625 2.0625 1.4375q0.78125 0.90625 0.78125 2.03125l0 6.984375zm-4.59375 -4.890625q0.21875 0 0.390625 -0.171875q0.171875 -0.171875 0.171875 -0.390625q0 -0.21875 -0.171875 -0.375q-0.171875 -0.171875 -0.390625 -0.171875q-0.21875 0 -0.390625 0.171875q-0.171875 0.15625 -0.171875 0.375q0 0.21875 0.171875 0.390625q0.171875 0.171875 0.390625 0.171875zm5.661682 -9.3125q-0.515625 0.6875 -3.15625 0.796875q0.28125 0.421875 0.28125 0.875q0 0.59375 -0.4375 1.03125q-0.4375 0.4375 -1.03125 0.4375q-0.609375 0 -1.046875 -0.4375q-0.4375 -0.4375 -0.4375 -1.03125l0 -0.0625q0.109375 -1.59375 2.359375 -1.734375q2.53125 -0.171875 2.953125 -0.78125l0.515625 0.90625zm-4.34375 2.203125q0.21875 0 0.375 -0.15625q0.15625 -0.15625 0.15625 -0.375q0 -0.234375 -0.15625 -0.390625q-0.15625 -0.15625 -0.375 -0.15625q-0.234375 0 -0.390625 0.15625q-0.15625 0.15625 -0.15625 0.390625q0 0.21875 0.15625 0.375q0.15625 0.15625 0.390625 0.15625z" fill-rule="nonzero"/><path stroke="#9e9e9e" stroke-width="1.0" stroke-linecap="butt" d="m699.7192 179.90027l0 42.59317" fill-rule="nonzero"/><path stroke="#9e9e9e" stroke-width="1.0" stroke-linecap="butt" d="m752.0105 179.90027l0 42.59317" fill-rule="nonzero"/><path stroke="#9e9e9e" stroke-width="1.0" stroke-linecap="butt" d="m922.6168 179.90027l0 42.59317" fill-rule="nonzero"/><path stroke="#9e9e9e" stroke-width="1.0" stroke-linecap="butt" d="m699.22046 180.39896l223.89502 0" fill-rule="nonzero"/><path stroke="#9e9e9e" stroke-width="1.0" stroke-linecap="butt" d="m699.22046 221.99475l223.89502 0" fill-rule="nonzero"/><path fill="#000000" d="m710.1567 207.31895l0 -13.359375l4.609375 0q1.546875 0 2.375 0.203125q1.140625 0.25 1.953125 0.953125q1.0625 0.890625 1.578125 2.28125q0.53125 1.390625 0.53125 3.171875q0 1.515625 -0.359375 2.703125q-0.359375 1.171875 -0.921875 1.9375q-0.546875 0.765625 -1.203125 1.21875q-0.65625 0.4375 -1.59375 0.671875q-0.9375 0.21875 -2.140625 0.21875l-4.828125 0zm1.765625 -1.578125l2.859375 0q1.3125 0 2.0625 -0.234375q0.75 -0.25 1.203125 -0.703125q0.625 -0.625 0.96875 -1.6875q0.359375 -1.0625 0.359375 -2.578125q0 -2.09375 -0.6875 -3.21875q-0.6875 -1.125 -1.671875 -1.5q-0.703125 -0.28125 -2.28125 -0.28125l-2.8125 0l0 10.203125zm17.2229 1.578125l-1.640625 0l0 -10.453125q-0.59375 0.5625 -1.5625 1.140625q-0.953125 0.5625 -1.71875 0.84375l0 -1.59375q1.375 -0.640625 2.40625 -1.5625q1.03125 -0.921875 1.453125 -1.78125l1.0625 0l0 13.40625z" fill-rule="nonzero"/><path fill="#000000" d="m765.04175 205.80333q0 -0.21875 -0.171875 -0.375q-0.171875 -0.171875 -0.390625 -0.171875q-0.21875 0 -0.390625 0.171875q-0.171875 0.15625 -0.171875 0.375q0 0.234375 0.171875 0.40625q0.171875 0.15625 0.390625 0.15625q0.21875 0 0.390625 -0.15625q0.171875 -0.171875 0.171875 -0.40625zm1.046875 0q0 0.65625 -0.484375 1.140625q-0.46875 0.46875 -1.125 0.46875q-0.984375 0 -1.53125 -0.65625q-0.53125 -0.671875 -0.53125 -1.890625l0 -7.875l1.5 0l0 7.296875q0.296875 -0.078125 0.5625 -0.078125q0.65625 0 1.125 0.46875q0.484375 0.46875 0.484375 1.125zm12.114075 1.515625l-1.734375 0l-2.28125 -6.921875q-0.171875 -0.515625 -0.40625 -1.5625q-0.25 1.0625 -0.40625 1.5625l-2.296875 6.921875l-1.71875 0l0 -7.296875q-0.28125 0.09375 -0.546875 0.09375q-0.65625 0 -1.140625 -0.46875q-0.46875 -0.484375 -0.46875 -1.140625q0 -0.65625 0.46875 -1.125q0.46875 -0.46875 1.140625 -0.46875q0.96875 0 1.515625 0.671875q0.546875 0.671875 0.546875 1.875l0 5.515625q0.5625 -1.90625 0.671875 -2.21875l1.828125 -5.765625l0.8125 0q2.25 7.03125 2.515625 7.953125l0 -7.953125l1.5 0l0 10.328125zm-9.390625 -8.25q0.21875 0 0.375 -0.15625q0.171875 -0.171875 0.171875 -0.40625q0 -0.21875 -0.171875 -0.375q-0.15625 -0.171875 -0.375 -0.171875q-0.234375 0 -0.40625 0.171875q-0.15625 0.15625 -0.15625 0.375q0 0.234375 0.15625 0.40625q0.171875 0.15625 0.40625 0.15625zm7.0721436 -4.15625q-0.75 -1.0625 -2.4375 -1.0625q-0.78125 0 -1.265625 0.296875q-0.484375 0.296875 -0.578125 0.765625l4.28125 0zm1.6875 0.984375l-7.171875 0l0 -0.1875q0 -1.1875 0.734375 -2.015625q0.71875 -0.828125 2.3125 -0.828125q1.359375 0 2.4375 0.78125q1.078125 0.78125 1.6875 2.25zm0 -4.59375l-1.078125 0l0 -3.21875l1.078125 0l0 3.21875zm11.46875 16.015625l-1.578125 0q-1.953125 -1.734375 -3.625 -2.484375q0 2.578125 -2.078125 2.578125q-0.75 0 -1.171875 -0.4375q-0.421875 -0.453125 -0.421875 -1.234375q0 -0.765625 0.578125 -1.34375q0.59375 -0.578125 1.578125 -0.734375l0 -3.65625q-0.28125 0.109375 -0.546875 0.109375q-0.65625 0 -1.140625 -0.46875q-0.46875 -0.484375 -0.46875 -1.140625q0 -0.65625 0.46875 -1.125q0.46875 -0.46875 1.140625 -0.46875q0.96875 0 1.515625 0.671875q0.546875 0.671875 0.546875 1.875l0 4.328125q1.703125 0.671875 3.6875 2.203125l0 -9.0l1.515625 0l0 10.328125zm-7.265625 -9.359375q-0.234375 0 -0.40625 0.171875q-0.15625 0.15625 -0.15625 0.375q0 0.234375 0.15625 0.40625q0.171875 0.15625 0.40625 0.15625q0.21875 0 0.375 -0.15625q0.171875 -0.171875 0.171875 -0.40625q0 -0.21875 -0.171875 -0.375q-0.15625 -0.171875 -0.375 -0.171875zm0.546875 7.59375l0 -0.859375q-0.5 0.078125 -0.8125 0.375q-0.296875 0.296875 -0.296875 0.671875q0 0.25 0.15625 0.4375q0.171875 0.1875 0.390625 0.1875q0.234375 0 0.390625 -0.21875q0.171875 -0.21875 0.171875 -0.59375z" fill-rule="nonzero"/><path fill="#000000" d="m809.85675 205.80333q0 -0.21875 -0.171875 -0.375q-0.171875 -0.171875 -0.390625 -0.171875q-0.21875 0 -0.390625 0.171875q-0.171875 0.15625 -0.171875 0.375q0 0.234375 0.171875 0.40625q0.171875 0.15625 0.390625 0.15625q0.21875 0 0.390625 -0.15625q0.171875 -0.171875 0.171875 -0.40625zm1.046875 0q0 0.65625 -0.484375 1.140625q-0.46875 0.46875 -1.125 0.46875q-0.984375 0 -1.53125 -0.65625q-0.53125 -0.671875 -0.53125 -1.890625l0 -7.875l1.5 0l0 7.296875q0.296875 -0.078125 0.5625 -0.078125q0.65625 0 1.125 0.46875q0.484375 0.46875 0.484375 1.125zm-6.0625 0q0 -0.21875 -0.171875 -0.375q-0.171875 -0.171875 -0.390625 -0.171875q-0.21875 0 -0.390625 0.171875q-0.171875 0.15625 -0.171875 0.375q0 0.234375 0.171875 0.40625q0.171875 0.15625 0.390625 0.15625q0.21875 0 0.390625 -0.15625q0.171875 -0.171875 0.171875 -0.40625zm1.046875 0q0 0.65625 -0.484375 1.140625q-0.46875 0.46875 -1.125 0.46875q-0.984375 0 -1.53125 -0.65625q-0.53125 -0.671875 -0.53125 -1.890625l0 -7.875l1.5 0l0 7.296875q0.296875 -0.078125 0.5625 -0.078125q0.65625 0 1.125 0.46875q0.484375 0.46875 0.484375 1.125zm15.274048 1.515625l-1.515625 0l0 -6.921875q0 -0.828125 -0.796875 -1.453125q-0.796875 -0.640625 -2.03125 -0.640625q-0.84375 0 -1.515625 0.296875q-0.671875 0.296875 -0.96875 0.75q1.40625 0.265625 1.890625 1.40625q-0.828125 0.1875 -1.28125 0.71875q-0.453125 0.515625 -0.453125 1.234375l0 4.609375l-1.515625 0l0 -4.5625q0 -1.546875 1.453125 -2.0q-0.25 -0.375 -1.953125 -0.375q0 -1.46875 1.1875 -2.46875q1.203125 -1.0 3.15625 -1.0q1.953125 0 3.140625 0.96875q1.203125 0.96875 1.203125 2.421875l0 7.015625zm1.4325562 -13.8125q-0.484375 1.21875 -1.734375 2.015625q-1.265625 0.78125 -2.78125 0.78125l-0.6875 0l0 -0.734375q0.515625 -0.375 0.796875 -0.953125q-0.453125 0 -0.765625 -0.3125q-0.328125 -0.328125 -0.328125 -0.78125q0 -0.4375 0.328125 -0.75q0.3125 -0.328125 0.765625 -0.328125q0.53125 0 0.90625 0.34375q0.359375 0.34375 0.359375 0.96875q0 0.71875 -0.78125 1.5625q2.328125 -0.328125 3.15625 -2.703125l0.765625 0.890625zm-4.40625 0.421875q0.171875 0 0.296875 -0.109375q0.109375 -0.125 0.109375 -0.296875q0 -0.15625 -0.109375 -0.28125q-0.125 -0.125 -0.296875 -0.125q-0.171875 0 -0.296875 0.125q-0.125 0.125 -0.125 0.28125q0 0.171875 0.125 0.296875q0.125 0.109375 0.296875 0.109375zm12.375 11.875q0 -0.21875 -0.171875 -0.375q-0.15625 -0.171875 -0.390625 -0.171875q-0.21875 0 -0.390625 0.171875q-0.15625 0.15625 -0.15625 0.375q0 0.234375 0.15625 0.40625q0.171875 0.15625 0.390625 0.15625q0.234375 0 0.390625 -0.15625q0.171875 -0.171875 0.171875 -0.40625zm1.046875 0q0 0.65625 -0.484375 1.140625q-0.46875 0.46875 -1.125 0.46875q-1.0 0 -1.53125 -0.65625q-0.53125 -0.671875 -0.53125 -1.890625l0 -10.046875q0 -1.65625 -0.640625 -1.65625q-0.71875 0 -1.46875 2.59375l-0.78125 0q-0.75 -2.59375 -1.46875 -2.59375q-0.234375 0 -0.5 0.078125l-0.328125 -1.3125q0.28125 -0.0625 0.453125 -0.0625q1.671875 0 2.234375 2.078125q0.5625 -2.078125 2.234375 -2.078125q1.78125 0 1.78125 2.953125l0 9.46875q0.28125 -0.078125 0.546875 -0.078125q0.65625 0 1.125 0.46875q0.484375 0.46875 0.484375 1.125zm11.25116 -0.375q0 1.25 -0.421875 1.578125q-0.40625 0.3125 -1.703125 0.3125l-4.828125 0l0 -1.28125l1.328125 0l0 -4.703125q0 -1.09375 0.828125 -1.703125q0 -0.578125 -0.5 -1.09375q-0.5 -0.515625 -1.40625 -0.515625q-0.734375 0 -1.25 0.3125q-0.515625 0.296875 -0.640625 0.703125q0.21875 -0.046875 0.671875 -0.046875q0.65625 0 1.125 0.46875q0.46875 0.46875 0.46875 1.125q0 0.65625 -0.46875 1.140625q-0.46875 0.46875 -1.125 0.46875q-0.9375 0 -1.578125 -0.703125q-0.625 -0.71875 -0.625 -1.765625q0 -1.28125 1.015625 -2.046875q1.03125 -0.765625 2.40625 -0.765625q1.46875 0 2.4375 0.765625q0.984375 0.75 0.984375 1.953125q-0.84375 0.609375 -0.84375 1.703125l0 4.703125l2.125 0q0.5 0 0.5 -0.609375l0 -8.4375l1.5 0l0 8.4375zm-7.921875 -4.28125q0.21875 0 0.390625 -0.171875q0.171875 -0.171875 0.171875 -0.390625q0 -0.21875 -0.171875 -0.390625q-0.171875 -0.171875 -0.390625 -0.171875q-0.21875 0 -0.390625 0.171875q-0.171875 0.171875 -0.171875 0.390625q0 0.21875 0.171875 0.390625q0.171875 0.171875 0.390625 0.171875z" fill-rule="nonzero"/><path fill="#000000" d="m863.9413 207.31895l-1.515625 0l0 -1.921875q-0.453125 -1.40625 -1.34375 -2.34375q-0.875 -0.953125 -1.875 -0.953125q-0.890625 0 -1.328125 0.484375q-0.4375 0.484375 -0.4375 1.4375l0 0.265625q0.28125 -0.078125 0.5625 -0.078125q0.65625 0 1.125 0.46875q0.484375 0.46875 0.484375 1.125q0 0.65625 -0.484375 1.140625q-0.46875 0.46875 -1.125 0.46875q-0.984375 0 -1.53125 -0.65625q-0.546875 -0.671875 -0.546875 -1.890625l0 -0.875q0 -1.4375 0.875 -2.3125q0.875 -0.875 2.421875 -0.875q1.03125 0 1.890625 0.609375q0.859375 0.609375 1.3125 1.640625l0 -2.390625q0 -1.09375 -0.578125 -1.71875q-0.578125 -0.640625 -2.09375 -0.640625q-1.171875 0 -1.890625 0.453125q-0.703125 0.453125 -0.9375 1.34375l-1.484375 -0.203125q0.328125 -1.5 1.46875 -2.234375q1.140625 -0.75 3.09375 -0.75q2.015625 0 2.96875 0.859375q0.96875 0.859375 0.96875 2.78125l0 6.765625zm-5.9375 -0.953125q0.21875 0 0.390625 -0.15625q0.171875 -0.171875 0.171875 -0.40625q0 -0.21875 -0.171875 -0.375q-0.171875 -0.171875 -0.390625 -0.171875q-0.21875 0 -0.390625 0.171875q-0.171875 0.15625 -0.171875 0.375q0 0.234375 0.171875 0.40625q0.171875 0.15625 0.390625 0.15625zm17.190735 -0.9375q0 1.1875 -0.40625 1.546875q-0.390625 0.34375 -1.734375 0.34375l-6.296875 0l0 -1.28125l1.203125 0l0 -6.015625q-0.28125 0.09375 -0.546875 0.09375q-0.65625 0 -1.140625 -0.46875q-0.46875 -0.484375 -0.46875 -1.140625q0 -0.65625 0.46875 -1.125q0.46875 -0.46875 1.140625 -0.46875q0.96875 0 1.515625 0.671875q0.546875 0.671875 0.546875 1.875l0 6.578125l3.703125 0q0.5 0 0.5 -0.546875l0 -8.5l1.515625 0l0 8.4375zm-7.78125 -6.359375q0.21875 0 0.375 -0.15625q0.171875 -0.171875 0.171875 -0.40625q0 -0.21875 -0.171875 -0.375q-0.15625 -0.171875 -0.375 -0.171875q-0.234375 0 -0.40625 0.171875q-0.15625 0.15625 -0.15625 0.375q0 0.234375 0.15625 0.40625q0.171875 0.15625 0.40625 0.15625z" fill-rule="nonzero"/><path stroke="#9e9e9e" stroke-width="1.0" stroke-linecap="butt" d="m705.30707 504.83466l0 42.59314" fill-rule="nonzero"/><path stroke="#9e9e9e" stroke-width="1.0" stroke-linecap="butt" d="m751.0105 504.83466l0 42.59314" fill-rule="nonzero"/><path stroke="#9e9e9e" stroke-width="1.0" stroke-linecap="butt" d="m917.0289 504.83466l0 42.59314" fill-rule="nonzero"/><path stroke="#9e9e9e" stroke-width="1.0" stroke-linecap="butt" d="m704.8084 505.33334l212.71918 0" fill-rule="nonzero"/><path stroke="#9e9e9e" stroke-width="1.0" stroke-linecap="butt" d="m704.8084 546.92914l212.71918 0" fill-rule="nonzero"/><path fill="#000000" d="m715.74457 532.25336l0 -13.359375l4.609375 0q1.546875 0 2.375 0.203125q1.140625 0.25 1.953125 0.953125q1.0625 0.890625 1.578125 2.28125q0.53125 1.390625 0.53125 3.171875q0 1.515625 -0.359375 2.703125q-0.359375 1.171875 -0.921875 1.9375q-0.546875 0.765625 -1.203125 1.21875q-0.65625 0.4375 -1.59375 0.671875q-0.9375 0.21875 -2.140625 0.21875l-4.828125 0zm1.765625 -1.578125l2.859375 0q1.3125 0 2.0625 -0.234375q0.75 -0.25 1.203125 -0.703125q0.625 -0.625 0.96875 -1.6875q0.359375 -1.0625 0.359375 -2.578125q0 -2.09375 -0.6875 -3.21875q-0.6875 -1.125 -1.671875 -1.5q-0.703125 -0.28125 -2.28125 -0.28125l-2.8125 0l0 10.203125zm19.660461 0l0 1.578125l-8.828125 0q-0.015625 -0.59375 0.1875 -1.140625q0.34375 -0.90625 1.078125 -1.78125q0.75 -0.875 2.15625 -2.015625q2.171875 -1.78125 2.9375 -2.828125q0.765625 -1.046875 0.765625 -1.96875q0 -0.984375 -0.703125 -1.640625q-0.6875 -0.671875 -1.8125 -0.671875q-1.1875 0 -1.90625 0.71875q-0.703125 0.703125 -0.703125 1.953125l-1.6875 -0.171875q0.171875 -1.890625 1.296875 -2.875q1.140625 -0.984375 3.03125 -0.984375q1.921875 0 3.046875 1.0625q1.125 1.0625 1.125 2.640625q0 0.796875 -0.328125 1.578125q-0.328125 0.78125 -1.09375 1.640625q-0.75 0.84375 -2.53125 2.34375q-1.46875 1.234375 -1.890625 1.6875q-0.421875 0.4375 -0.6875 0.875l6.546875 0z" fill-rule="nonzero"/><path fill="#000000" d="m764.04175 530.73773q0 -0.21875 -0.171875 -0.375q-0.171875 -0.171875 -0.390625 -0.171875q-0.21875 0 -0.390625 0.171875q-0.171875 0.15625 -0.171875 0.375q0 0.234375 0.171875 0.40625q0.171875 0.15625 0.390625 0.15625q0.21875 0 0.390625 -0.15625q0.171875 -0.171875 0.171875 -0.40625zm1.046875 0q0 0.65625 -0.484375 1.140625q-0.46875 0.46875 -1.125 0.46875q-0.984375 0 -1.53125 -0.65625q-0.53125 -0.671875 -0.53125 -1.890625l0 -7.875l1.5 0l0 7.296875q0.296875 -0.078125 0.5625 -0.078125q0.65625 0 1.125 0.46875q0.484375 0.46875 0.484375 1.125zm12.114075 1.515625l-1.734375 0l-2.28125 -6.921875q-0.171875 -0.515625 -0.40625 -1.5625q-0.25 1.0625 -0.40625 1.5625l-2.296875 6.921875l-1.71875 0l0 -7.296875q-0.28125 0.09375 -0.546875 0.09375q-0.65625 0 -1.140625 -0.46875q-0.46875 -0.484375 -0.46875 -1.140625q0 -0.65625 0.46875 -1.125q0.46875 -0.46875 1.140625 -0.46875q0.96875 0 1.515625 0.671875q0.546875 0.671875 0.546875 1.875l0 5.515625q0.5625 -1.90625 0.671875 -2.21875l1.828125 -5.765625l0.8125 0q2.25 7.03125 2.515625 7.953125l0 -7.953125l1.5 0l0 10.328125zm-9.390625 -8.25q0.21875 0 0.375 -0.15625q0.171875 -0.171875 0.171875 -0.40625q0 -0.21875 -0.171875 -0.375q-0.15625 -0.171875 -0.375 -0.171875q-0.234375 0 -0.40625 0.171875q-0.15625 0.15625 -0.15625 0.375q0 0.234375 0.15625 0.40625q0.171875 0.15625 0.40625 0.15625zm7.0721436 -4.15625q-0.75 -1.0625 -2.4375 -1.0625q-0.78125 0 -1.265625 0.296875q-0.484375 0.296875 -0.578125 0.765625l4.28125 0zm1.6875 0.984375l-7.171875 0l0 -0.1875q0 -1.1875 0.734375 -2.015625q0.71875 -0.828125 2.3125 -0.828125q1.359375 0 2.4375 0.78125q1.078125 0.78125 1.6875 2.25zm0 -4.59375l-1.078125 0l0 -3.21875l1.078125 0l0 3.21875zm11.46875 16.015625l-1.578125 0q-1.953125 -1.734375 -3.625 -2.484375q0 2.578125 -2.078125 2.578125q-0.75 0 -1.171875 -0.4375q-0.421875 -0.453125 -0.421875 -1.234375q0 -0.765625 0.578125 -1.34375q0.59375 -0.578125 1.578125 -0.734375l0 -3.65625q-0.28125 0.109375 -0.546875 0.109375q-0.65625 0 -1.140625 -0.46875q-0.46875 -0.484375 -0.46875 -1.140625q0 -0.65625 0.46875 -1.125q0.46875 -0.46875 1.140625 -0.46875q0.96875 0 1.515625 0.671875q0.546875 0.671875 0.546875 1.875l0 4.328125q1.703125 0.671875 3.6875 2.203125l0 -9.0l1.515625 0l0 10.328125zm-7.265625 -9.359375q-0.234375 0 -0.40625 0.171875q-0.15625 0.15625 -0.15625 0.375q0 0.234375 0.15625 0.40625q0.171875 0.15625 0.40625 0.15625q0.21875 0 0.375 -0.15625q0.171875 -0.171875 0.171875 -0.40625q0 -0.21875 -0.171875 -0.375q-0.15625 -0.171875 -0.375 -0.171875zm0.546875 7.59375l0 -0.859375q-0.5 0.078125 -0.8125 0.375q-0.296875 0.296875 -0.296875 0.671875q0 0.25 0.15625 0.4375q0.171875 0.1875 0.390625 0.1875q0.234375 0 0.390625 -0.21875q0.171875 -0.21875 0.171875 -0.59375z" fill-rule="nonzero"/><path fill="#000000" d="m808.85675 530.73773q0 -0.21875 -0.171875 -0.375q-0.171875 -0.171875 -0.390625 -0.171875q-0.21875 0 -0.390625 0.171875q-0.171875 0.15625 -0.171875 0.375q0 0.234375 0.171875 0.40625q0.171875 0.15625 0.390625 0.15625q0.21875 0 0.390625 -0.15625q0.171875 -0.171875 0.171875 -0.40625zm1.046875 0q0 0.65625 -0.484375 1.140625q-0.46875 0.46875 -1.125 0.46875q-0.984375 0 -1.53125 -0.65625q-0.53125 -0.671875 -0.53125 -1.890625l0 -7.875l1.5 0l0 7.296875q0.296875 -0.078125 0.5625 -0.078125q0.65625 0 1.125 0.46875q0.484375 0.46875 0.484375 1.125zm-6.0625 0q0 -0.21875 -0.171875 -0.375q-0.171875 -0.171875 -0.390625 -0.171875q-0.21875 0 -0.390625 0.171875q-0.171875 0.15625 -0.171875 0.375q0 0.234375 0.171875 0.40625q0.171875 0.15625 0.390625 0.15625q0.21875 0 0.390625 -0.15625q0.171875 -0.171875 0.171875 -0.40625zm1.046875 0q0 0.65625 -0.484375 1.140625q-0.46875 0.46875 -1.125 0.46875q-0.984375 0 -1.53125 -0.65625q-0.53125 -0.671875 -0.53125 -1.890625l0 -7.875l1.5 0l0 7.296875q0.296875 -0.078125 0.5625 -0.078125q0.65625 0 1.125 0.46875q0.484375 0.46875 0.484375 1.125zm15.274048 1.515625l-1.515625 0l0 -6.921875q0 -0.828125 -0.796875 -1.453125q-0.796875 -0.640625 -2.03125 -0.640625q-0.84375 0 -1.515625 0.296875q-0.671875 0.296875 -0.96875 0.75q1.40625 0.265625 1.890625 1.40625q-0.828125 0.1875 -1.28125 0.71875q-0.453125 0.515625 -0.453125 1.234375l0 4.609375l-1.515625 0l0 -4.5625q0 -1.546875 1.453125 -2.0q-0.25 -0.375 -1.953125 -0.375q0 -1.46875 1.1875 -2.46875q1.203125 -1.0 3.15625 -1.0q1.953125 0 3.140625 0.96875q1.203125 0.96875 1.203125 2.421875l0 7.015625zm1.4325562 -13.8125q-0.484375 1.21875 -1.734375 2.015625q-1.265625 0.78125 -2.78125 0.78125l-0.6875 0l0 -0.734375q0.515625 -0.375 0.796875 -0.953125q-0.453125 0 -0.765625 -0.3125q-0.328125 -0.328125 -0.328125 -0.78125q0 -0.4375 0.328125 -0.75q0.3125 -0.328125 0.765625 -0.328125q0.53125 0 0.90625 0.34375q0.359375 0.34375 0.359375 0.96875q0 0.71875 -0.78125 1.5625q2.328125 -0.328125 3.15625 -2.703125l0.765625 0.890625zm-4.40625 0.421875q0.171875 0 0.296875 -0.109375q0.109375 -0.125 0.109375 -0.296875q0 -0.15625 -0.109375 -0.28125q-0.125 -0.125 -0.296875 -0.125q-0.171875 0 -0.296875 0.125q-0.125 0.125 -0.125 0.28125q0 0.171875 0.125 0.296875q0.125 0.109375 0.296875 0.109375zm12.375 11.875q0 -0.21875 -0.171875 -0.375q-0.15625 -0.171875 -0.390625 -0.171875q-0.21875 0 -0.390625 0.171875q-0.15625 0.15625 -0.15625 0.375q0 0.234375 0.15625 0.40625q0.171875 0.15625 0.390625 0.15625q0.234375 0 0.390625 -0.15625q0.171875 -0.171875 0.171875 -0.40625zm1.046875 0q0 0.65625 -0.484375 1.140625q-0.46875 0.46875 -1.125 0.46875q-1.0 0 -1.53125 -0.65625q-0.53125 -0.671875 -0.53125 -1.890625l0 -10.046875q0 -1.65625 -0.640625 -1.65625q-0.71875 0 -1.46875 2.59375l-0.78125 0q-0.75 -2.59375 -1.46875 -2.59375q-0.234375 0 -0.5 0.078125l-0.328125 -1.3125q0.28125 -0.0625 0.453125 -0.0625q1.671875 0 2.234375 2.078125q0.5625 -2.078125 2.234375 -2.078125q1.78125 0 1.78125 2.953125l0 9.46875q0.28125 -0.078125 0.546875 -0.078125q0.65625 0 1.125 0.46875q0.484375 0.46875 0.484375 1.125zm11.25116 -0.375q0 1.25 -0.421875 1.578125q-0.40625 0.3125 -1.703125 0.3125l-4.828125 0l0 -1.28125l1.328125 0l0 -4.703125q0 -1.09375 0.828125 -1.703125q0 -0.578125 -0.5 -1.09375q-0.5 -0.515625 -1.40625 -0.515625q-0.734375 0 -1.25 0.3125q-0.515625 0.296875 -0.640625 0.703125q0.21875 -0.046875 0.671875 -0.046875q0.65625 0 1.125 0.46875q0.46875 0.46875 0.46875 1.125q0 0.65625 -0.46875 1.140625q-0.46875 0.46875 -1.125 0.46875q-0.9375 0 -1.578125 -0.703125q-0.625 -0.71875 -0.625 -1.765625q0 -1.28125 1.015625 -2.046875q1.03125 -0.765625 2.40625 -0.765625q1.46875 0 2.4375 0.765625q0.984375 0.75 0.984375 1.953125q-0.84375 0.609375 -0.84375 1.703125l0 4.703125l2.125 0q0.5 0 0.5 -0.609375l0 -8.4375l1.5 0l0 8.4375zm-7.921875 -4.28125q0.21875 0 0.390625 -0.171875q0.171875 -0.171875 0.171875 -0.390625q0 -0.21875 -0.171875 -0.390625q-0.171875 -0.171875 -0.390625 -0.171875q-0.21875 0 -0.390625 0.171875q-0.171875 0.171875 -0.171875 0.390625q0 0.21875 0.171875 0.390625q0.171875 0.171875 0.390625 0.171875z" fill-rule="nonzero"/><path fill="#000000" d="m862.9413 532.25336l-1.515625 0l0 -1.921875q-0.453125 -1.40625 -1.34375 -2.34375q-0.875 -0.953125 -1.875 -0.953125q-0.890625 0 -1.328125 0.484375q-0.4375 0.484375 -0.4375 1.4375l0 0.265625q0.28125 -0.078125 0.5625 -0.078125q0.65625 0 1.125 0.46875q0.484375 0.46875 0.484375 1.125q0 0.65625 -0.484375 1.140625q-0.46875 0.46875 -1.125 0.46875q-0.984375 0 -1.53125 -0.65625q-0.546875 -0.671875 -0.546875 -1.890625l0 -0.875q0 -1.4375 0.875 -2.3125q0.875 -0.875 2.421875 -0.875q1.03125 0 1.890625 0.609375q0.859375 0.609375 1.3125 1.640625l0 -2.390625q0 -1.09375 -0.578125 -1.71875q-0.578125 -0.640625 -2.09375 -0.640625q-1.171875 0 -1.890625 0.453125q-0.703125 0.453125 -0.9375 1.34375l-1.484375 -0.203125q0.328125 -1.5 1.46875 -2.234375q1.140625 -0.75 3.09375 -0.75q2.015625 0 2.96875 0.859375q0.96875 0.859375 0.96875 2.78125l0 6.765625zm-5.9375 -0.953125q0.21875 0 0.390625 -0.15625q0.171875 -0.171875 0.171875 -0.40625q0 -0.21875 -0.171875 -0.375q-0.171875 -0.171875 -0.390625 -0.171875q-0.21875 0 -0.390625 0.171875q-0.171875 0.15625 -0.171875 0.375q0 0.234375 0.171875 0.40625q0.171875 0.15625 0.390625 0.15625zm17.190735 -0.9375q0 1.1875 -0.40625 1.546875q-0.390625 0.34375 -1.734375 0.34375l-6.296875 0l0 -1.28125l1.203125 0l0 -6.015625q-0.28125 0.09375 -0.546875 0.09375q-0.65625 0 -1.140625 -0.46875q-0.46875 -0.484375 -0.46875 -1.140625q0 -0.65625 0.46875 -1.125q0.46875 -0.46875 1.140625 -0.46875q0.96875 0 1.515625 0.671875q0.546875 0.671875 0.546875 1.875l0 6.578125l3.703125 0q0.5 0 0.5 -0.546875l0 -8.5l1.515625 0l0 8.4375zm-7.78125 -6.359375q0.21875 0 0.375 -0.15625q0.171875 -0.171875 0.171875 -0.40625q0 -0.21875 -0.171875 -0.375q-0.15625 -0.171875 -0.375 -0.171875q-0.234375 0 -0.40625 0.171875q-0.15625 0.15625 -0.15625 0.375q0 0.234375 0.15625 0.40625q0.171875 0.15625 0.40625 0.15625z" fill-rule="nonzero"/><path fill="#000000" fill-opacity="0.0" d="m571.0341 182.06824l115.87402 -1.3858185" fill-rule="evenodd"/><path stroke="#000000" stroke-width="1.0" stroke-linejoin="round" stroke-linecap="butt" d="m571.0341 182.06824l109.87445 -1.3140717" fill-rule="evenodd"/><path fill="#000000" stroke="#000000" stroke-width="1.0" stroke-linecap="butt" d="m680.92834 182.40578l4.5180054 -1.7058868l-4.557556 -1.5973358z" fill-rule="evenodd"/><path fill="#000000" fill-opacity="0.0" d="m692.62335 212.96326l-115.87402 4.1259766" fill-rule="evenodd"/><path stroke="#000000" stroke-width="1.0" stroke-linejoin="round" stroke-linecap="butt" d="m692.62335 212.96326l-109.87781 3.9124756" fill-rule="evenodd"/><path fill="#000000" stroke="#000000" stroke-width="1.0" stroke-linecap="butt" d="m582.68677 215.22504l-4.4764404 1.8121796l4.593994 1.4891968z" fill-rule="evenodd"/><path fill="#000000" fill-opacity="0.0" d="m565.5171 515.8609l128.28345 -1.3858643" fill-rule="evenodd"/><path stroke="#000000" stroke-width="1.0" stroke-linejoin="round" stroke-linecap="butt" d="m565.5171 515.8609l122.28381 -1.3210449" fill-rule="evenodd"/><path fill="#000000" stroke="#000000" stroke-width="1.0" stroke-linecap="butt" d="m687.8187 516.1915l4.5199585 -1.7006836l-4.555664 -1.6026001z" fill-rule="evenodd"/><path fill="#000000" fill-opacity="0.0" d="m700.6903 540.6903l-129.66931 2.7716064" fill-rule="evenodd"/><path stroke="#000000" stroke-width="1.0" stroke-linejoin="round" stroke-linecap="butt" d="m700.6903 540.6903l-123.670654 2.6433716" fill-rule="evenodd"/><path fill="#000000" stroke="#000000" stroke-width="1.0" stroke-linecap="butt" d="m576.9843 541.6824l-4.50177 1.748352l4.5723877 1.5543823z" fill-rule="evenodd"/><path fill="#000000" fill-opacity="0.0" d="m302.06036 182.08398l-108.944885 -2.1732178" fill-rule="evenodd"/><path stroke="#000000" stroke-width="1.0" stroke-linejoin="round" stroke-linecap="butt" d="m302.06036 182.08398l-102.94606 -2.0535583" fill-rule="evenodd"/><path fill="#000000" stroke="#000000" stroke-width="1.0" stroke-linecap="butt" d="m199.14723 178.37903l-4.5701294 1.5608826l4.504242 1.7419128z" fill-rule="evenodd"/><path fill="#000000" fill-opacity="0.0" d="m291.03674 539.30707l-104.81889 1.9842529" fill-rule="evenodd"/><path stroke="#000000" stroke-width="1.0" stroke-linejoin="round" stroke-linecap="butt" d="m291.03674 539.30707l-98.81996 1.8707275" fill-rule="evenodd"/><path fill="#000000" stroke="#000000" stroke-width="1.0" stroke-linecap="butt" d="m192.18552 539.52637l-4.506027 1.7373047l4.5685425 1.5655518z" fill-rule="evenodd"/></g></svg>